<svg id="Layer_1" data-name="Layer 1" xmlns="http://www.w3.org/2000/svg" viewBox="0 0 47.15 47.15"><defs><style>.cls-1{fill:#008c95;}</style></defs><path id="Path_303" data-name="Path 303" class="cls-1" d="M38,7.2H34.53V5.42a1.19,1.19,0,0,0-2.37,0V7.2H15.53V5.42a1.19,1.19,0,0,0-2.37,0V7.2H9.75a4.9,4.9,0,0,0-4.9,4.9V37.33a4.9,4.9,0,0,0,4.9,4.9H38a4.9,4.9,0,0,0,4.9-4.9h0V12.1A4.91,4.91,0,0,0,38,7.2ZM9.75,9.58h3.41v1.19a1.19,1.19,0,0,0,1.22,1.15,1.18,1.18,0,0,0,1.15-1.15V9.58H32.16v1.19a1.19,1.19,0,0,0,1.22,1.15,1.18,1.18,0,0,0,1.15-1.15V9.58H38a2.52,2.52,0,0,1,2.52,2.52v2.82H7.22V12.1A2.52,2.52,0,0,1,9.74,9.58ZM38,39.86H9.75a2.52,2.52,0,0,1-2.53-2.52v-20H40.47v20A2.52,2.52,0,0,1,38,39.86Z"/></svg>