<svg id="Layer_1" data-name="Layer 1" xmlns="http://www.w3.org/2000/svg" viewBox="0 0 47.15 47.15"><defs><style>.cls-1{fill:#008c95;}</style></defs><g id="Group_3603" data-name="Group 3603"><path id="Path_1861" data-name="Path 1861" class="cls-1" d="M36.28,16H12.05a1,1,0,0,0-.72.23.84.84,0,0,0-.24.72l2.49,21.7a4.75,4.75,0,0,0,4.75,4.16H30.39a4.73,4.73,0,0,0,4.79-4.31l2.06-21.64A.82.82,0,0,0,37,16.2.93.93,0,0,0,36.28,16Zm-3,22.41a2.78,2.78,0,0,1-2.88,2.49H18.33a2.74,2.74,0,0,1-2.83-2.44L13.11,17.88H35.23Z"/><path id="Path_1862" data-name="Path 1862" class="cls-1" d="M39.78,9.74H29.92V8.21a2.69,2.69,0,0,0-2.59-2.78H21.15a2.68,2.68,0,0,0-2.73,2.63V9.74H8.56a1,1,0,1,0,0,1.92H39.78a1,1,0,1,0,0-1.92Zm-19.44,0V8.21A.76.76,0,0,1,21,7.35h6.19a.75.75,0,0,1,.81.71.38.38,0,0,1,0,.15V9.74Z"/></g></svg>