<svg id="Layer_1" data-name="Layer 1" xmlns="http://www.w3.org/2000/svg" viewBox="0 0 47.15 47.15"><defs><style>.cls-1{fill:#008c95;}</style></defs><g id="Group_4128" data-name="Group 4128"><g id="Group_4121" data-name="Group 4121"><path id="Path_1920" data-name="Path 1920" class="cls-1" d="M39.13,6.29a5.12,5.12,0,0,0-7.24,0L30.07,8.11,10.76,27.41l0,0s0,0,0,0l-.08.09s0,0,0,0l0,.08,0,0,0,.08s0,0,0,0L6.22,40.69a1,1,0,0,0,.24,1,1,1,0,0,0,.73.3A1.26,1.26,0,0,0,7.52,42l12.87-4.29h0a.19.19,0,0,0,.09,0h0l.1-.06.09-.07,0,0s0,0,0,0L41.91,16.3a5.13,5.13,0,0,0,0-7.25Zm-19.07,29-7.13-7.13L30.79,10.28l7.13,7.14ZM11.92,30l6.24,6.24L8.8,39.38ZM40.47,14.86,39.38,16,32.24,8.82l1.1-1.1a3.07,3.07,0,0,1,4.34,0l2.79,2.79a3.09,3.09,0,0,1,0,4.35Z"/></g></g></svg>