<svg id="Layer_1" data-name="Layer 1" xmlns="http://www.w3.org/2000/svg" viewBox="0 0 47.15 47.15"><defs><style>.cls-1{fill:#008c95;}</style></defs><path id="Icon_awesome-question-circle" data-name="Icon awesome-question-circle" class="cls-1" d="M41.43,23.11A17.11,17.11,0,1,1,24.32,6h0A17.11,17.11,0,0,1,41.43,23.11ZM24.77,11.66a8.92,8.92,0,0,0-8,4.4.83.83,0,0,0,.19,1.12L19.32,19a.84.84,0,0,0,1.15-.15c1.23-1.56,2.07-2.47,4-2.47,1.41,0,3.15.91,3.15,2.27,0,1-.85,1.57-2.24,2.35-1.62.91-3.78,2-3.78,4.87v.27a.83.83,0,0,0,.83.83h3.86a.82.82,0,0,0,.84-.82h0v-.09c0-2,5.74-2,5.74-7.36C32.82,14.69,28.66,11.66,24.77,11.66Zm-.45,17.11A3.17,3.17,0,1,0,27.49,32h0A3.18,3.18,0,0,0,24.32,28.77Z"/></svg>