<svg id="Layer_1" data-name="Layer 1" xmlns="http://www.w3.org/2000/svg" viewBox="0 0 47.15 47.15"><defs><style>.cls-1{fill:#008c95;}</style></defs><path id="Icon_awesome-check-circle" data-name="Icon awesome-check-circle" class="cls-1" d="M40.9,23.11A17.44,17.44,0,1,1,23.46,5.67h0A17.44,17.44,0,0,1,40.9,23.11ZM21.45,32.34,34.38,19.41a1.12,1.12,0,0,0,0-1.59h0l-1.59-1.6a1.12,1.12,0,0,0-1.59,0h0L20.65,26.77l-4.92-4.92a1.13,1.13,0,0,0-1.6,0h0l-1.59,1.59a1.12,1.12,0,0,0,0,1.59h0l7.32,7.31a1.12,1.12,0,0,0,1.59,0Z"/></svg>